<svg xmlns="http://www.w3.org/2000/svg" width="1200" height="400">
   <style>
      @keyframes svg_draw{0%{stroke-dasharray:0}10%{stroke-dasharray:10}20%{stroke-dasharray:20}30%{stroke-dasharray:30}40%{stroke-dasharray:40}50%{stroke-dasharray:50}60%{stroke-dasharray:60}70%{stroke-dasharray:70}80%{stroke-dasharray:80}90%{stroke-dasharray:90}}.path1{stroke:#00f;stroke-width:1;stroke-dasharray:8}.path2{stroke:orange;stroke-width:5}.path3{stroke:orange;stroke-width:1}.text1{stroke:#00f;font-size:22px}
   </style>
<!--<g> <line x1="0" x2="50" y1="0" y2="100" class="path1"/> <line x1="0" x2="50" y1="200" y2="100" class="path1"/> <line x1="200" x2="150" y1="0" y2="100" class="path1"/> <line x1="200" x2="150" y1="200" y2="100" class="path1"/> </g>-->
<!--<g stroke-opacity="0.2"> <line x1="100" x2="390" y1="150" y2="1" class="path1"/> <line x1="200" x2="570" y1="200" y2="1" class="path1"/> <line x1="200" x2="570" y1="200" y2="356" class="path1"/> <line x1="200" x2="720" y1="305" y2="1" class="path1"/> <line x1="200" x2="390" y1="305" y2="400" class="path1"/> <line x1="100" x2="0" y1="360" y2="410" class="path1"/> <line x1="100" x2="0" y1="50" y2="100" class="path1"/> <line x1="100" x2="900" y1="50" y2="400" class="path1"/> </g>-->
<!--<g> <line x1="0" x2="100" y1="0" y2="50" class="path2"/> <line x1="200" x2="100" y1="0" y2="50" class="path2"/> <line x1="100" x2="100" y1="50" y2="0" class="path2"/> </g>-->
<!--<line x1="300" x2="600" y1="150" y2="150" class="path1" />-->
   <g stroke-opacity="0.3">
      <line x1="302" x2="1200" y1="260" y2="260" class="path1"/>
      <line x1="302" x2="302" y1="260" y2="760" class="path1"/>
      <line x1="100" x2="100" y1="150" y2="0" class="path1"/>
      <line x1="0" x2="100" y1="150" y2="150" class="path1"/>
      <line x1="200" x2="200" y1="100" y2="-10" class="path1"/>
      <line x1="200" x2="1200" y1="100" y2="100" class="path1"/>
      <line x1="0" x2="200" y1="312" y2="312" class="path1"/>
      <line x1="200" x2="200" y1="312" y2="612" class="path1"/>
   </g>
<!--<line x1="0" x2="102" y1="260" y2="260" class="path1" />-->
   <g stroke-opacity="0.6" style="animation:svg_draw 3s linear infinite">
      <g>
         <line x1="300" x2="200" y1="150" y2="100" class="path2"/>
         <line x1="100" x2="200" y1="150" y2="100" class="path2"/>
         <line x1="100" x2="200" y1="150" y2="200" class="path2"/>
         <line x1="300" x2="200" y1="150" y2="200" class="path2"/>
      </g>
      <line x1="100" x2="100" y1="150" y2="260" class="path2"/>
      <line x1="200" x2="200" y1="200" y2="310" class="path2"/>
      <line x1="300" x2="300" y1="150" y2="255" class="path2"/>
<!--<line x1="100" x2="100" y1="150" y2="270" class="path2"/>-->
      <g>
         <line x1="100" x2="200" y1="260" y2="310" class="path2"/>
         <line x1="300" x2="200" y1="255" y2="310" class="path2"/>
      </g>
   </g>
   <g stroke-opacity="0.6">
      <g>
         <line x1="300" x2="200" y1="150" y2="100" class="path3"/>
         <line x1="100" x2="200" y1="150" y2="100" class="path3"/>
         <line x1="100" x2="200" y1="150" y2="200" class="path3"/>
         <line x1="300" x2="200" y1="150" y2="200" class="path3"/>
      </g>
      <line x1="100" x2="100" y1="150" y2="260" class="path3"/>
      <line x1="200" x2="200" y1="200" y2="310" class="path3"/>
      <line x1="300" x2="300" y1="150" y2="255" class="path3"/>
      <g>
         <line x1="100" x2="200" y1="260" y2="310" class="path3"/>
         <line x1="300" x2="200" y1="255" y2="310" class="path3"/>
      </g>
   </g>
   <text x="55" y="125" class="text1">
      c#
   </text>
   <text x="220" y="81" class="text1">
      html
   </text>
   <text x="150" y="340" class="text1">
      css
   </text>
   <text x="320" y="285" class="text1">
      javascript
   </text>
</svg>
